<?xml version="1.0" encoding="UTF-8" ?>
<!DOCTYPE svg PUBLIC "-//W3C//DTD SVG 1.1//EN" "http://www.w3.org/Graphics/SVG/1.1/DTD/svg11.dtd">
<svg width="39px" height="40px" viewBox="0 0 160 161" version="1.1" xmlns="http://www.w3.org/2000/svg">
<g id="#ffffffff">
<path fill="#ffffff" opacity="1.00" d=" M 51.47 19.36 C 53.49 10.29 66.49 6.67 73.21 12.84 C 77.82 16.80 79.67 22.86 81.04 28.57 C 71.70 30.90 62.33 33.11 52.98 35.38 C 51.52 30.21 50.13 24.71 51.47 19.36 Z" />
<path fill="#ffffff" opacity="1.00" d=" M 84.40 37.52 C 87.01 35.26 91.53 37.57 91.36 40.96 C 91.44 43.90 87.84 46.28 85.20 44.82 C 82.31 43.66 81.70 39.24 84.40 37.52 Z" />
<path fill="#ffffff" opacity="1.00" d=" M 51.40 44.28 C 54.07 42.42 58.23 44.74 57.94 48.01 C 58.08 51.17 54.03 53.45 51.43 51.60 C 48.70 50.13 48.59 45.73 51.40 44.28 Z" />
<path fill="#ffffff" opacity="1.00" d=" M 74.27 63.32 C 80.31 61.20 84.09 72.20 77.90 74.10 C 72.36 75.18 69.02 65.80 74.27 63.32 Z" />
<path fill="#ffffff" opacity="1.00" d=" M 12.75 134.39 C 14.87 134.64 17.48 134.13 18.98 136.04 C 22.40 140.05 21.93 146.59 18.20 150.26 C 16.65 150.64 15.11 151.06 13.57 151.48 C 11.86 145.98 13.24 140.06 12.75 134.39 Z" />
<path fill="#ffffff" opacity="1.00" d=" M 85.72 134.36 C 87.56 134.72 89.97 134.06 91.23 135.82 C 93.15 138.29 92.71 142.35 90.32 144.38 C 88.82 144.75 87.26 144.78 85.73 144.91 C 85.76 141.39 85.76 137.88 85.72 134.36 Z" />
<path fill="#ffffff" opacity="1.00" d=" M 69.04 139.01 C 70.26 142.08 71.52 145.14 72.69 148.24 C 70.55 148.24 68.41 148.23 66.27 148.23 C 67.49 145.25 68.57 142.20 69.04 139.01 Z" />
<path fill="#ffffff" opacity="1.00" d=" M 144.07 140.02 C 146.12 142.31 146.32 145.57 147.68 148.25 C 145.55 148.23 143.41 148.23 141.28 148.24 C 142.34 145.55 143.25 142.80 144.07 140.02 Z" />
</g>
<g id="#df7229ff">
<path fill="#df7229" opacity="1.00" d=" M 46.47 15.43 C 50.98 3.34 69.11 -0.12 77.98 9.11 C 82.95 13.92 85.39 20.64 86.90 27.24 C 91.92 26.00 96.95 24.82 101.97 23.61 C 111.14 52.98 120.32 82.35 129.55 111.70 C 102.70 111.68 75.85 111.75 49.00 111.66 C 49.45 106.49 55.12 104.77 59.33 103.60 C 75.03 99.88 91.31 100.79 107.31 100.60 C 84.39 97.73 60.88 96.45 38.09 101.05 C 35.66 80.93 32.99 60.85 30.60 40.73 C 36.08 39.34 41.59 38.08 47.08 36.77 C 45.20 29.87 43.65 22.31 46.47 15.43 M 51.47 19.36 C 50.13 24.71 51.52 30.21 52.98 35.38 C 62.33 33.11 71.70 30.90 81.04 28.57 C 79.67 22.86 77.82 16.80 73.21 12.84 C 66.49 6.67 53.49 10.29 51.47 19.36 M 84.40 37.52 C 81.70 39.24 82.31 43.66 85.20 44.82 C 87.84 46.28 91.44 43.90 91.36 40.96 C 91.53 37.57 87.01 35.26 84.40 37.52 M 51.40 44.28 C 48.59 45.73 48.70 50.13 51.43 51.60 C 54.03 53.45 58.08 51.17 57.94 48.01 C 58.23 44.74 54.07 42.42 51.40 44.28 M 74.27 63.32 C 69.02 65.80 72.36 75.18 77.90 74.10 C 84.09 72.20 80.31 61.20 74.27 63.32 Z" />
<path fill="#df7229" opacity="1.00" d=" M 9.17 131.39 C 13.90 131.53 19.86 130.49 23.09 134.91 C 26.32 139.72 26.01 146.86 22.37 151.38 C 19.02 155.11 13.64 154.39 9.15 154.43 C 9.31 146.75 9.06 139.07 9.17 131.39 M 12.75 134.39 C 13.24 140.06 11.86 145.98 13.57 151.48 C 15.11 151.06 16.65 150.64 18.20 150.26 C 21.93 146.59 22.40 140.05 18.98 136.04 C 17.48 134.13 14.87 134.64 12.75 134.39 Z" />
<path fill="#df7229" opacity="1.00" d=" M 29.24 131.39 C 33.23 131.44 37.22 131.44 41.21 131.43 C 41.21 132.52 41.21 133.61 41.22 134.70 C 38.56 134.70 35.90 134.69 33.24 134.68 C 33.22 136.62 33.21 138.55 33.19 140.49 C 35.29 140.47 37.39 140.46 39.48 140.44 C 39.49 141.53 39.49 142.63 39.49 143.72 C 37.40 143.69 35.31 143.67 33.22 143.64 C 33.22 146.02 33.22 148.40 33.21 150.78 C 35.99 150.78 38.78 150.76 41.56 150.67 C 41.65 151.92 41.73 153.17 41.79 154.42 C 37.61 154.39 33.42 154.39 29.24 154.43 C 29.33 146.75 29.32 139.07 29.24 131.39 Z" />
<path fill="#df7229" opacity="1.00" d=" M 48.46 131.72 C 51.63 130.61 55.19 131.11 58.04 132.85 C 57.44 133.97 56.82 135.10 56.20 136.22 C 55.69 135.76 54.66 134.84 54.15 134.37 C 52.53 134.47 50.44 134.00 49.55 135.80 C 48.57 139.65 53.22 140.71 55.49 142.65 C 59.85 144.86 59.92 152.34 55.18 154.13 C 51.93 155.21 48.07 154.78 45.28 152.72 C 45.23 151.47 45.83 150.31 46.16 149.13 C 48.64 151.06 51.82 152.27 54.68 150.30 C 55.46 145.74 50.43 144.65 47.78 142.18 C 44.33 139.70 44.63 133.67 48.46 131.72 Z" />
<path fill="#df7229" opacity="1.00" d=" M 59.45 154.44 C 63.05 146.68 66.00 138.64 69.50 130.84 C 72.73 138.73 75.93 146.65 79.41 154.45 C 77.95 154.42 76.49 154.39 75.03 154.37 C 74.49 153.14 73.94 151.92 73.36 150.71 C 70.77 150.80 68.19 150.79 65.60 150.71 C 65.05 151.92 64.51 153.14 63.99 154.37 C 62.47 154.39 60.96 154.41 59.45 154.44 M 69.04 139.01 C 68.57 142.20 67.49 145.25 66.27 148.23 C 68.41 148.23 70.55 148.24 72.69 148.24 C 71.52 145.14 70.26 142.08 69.04 139.01 Z" />
<path fill="#df7229" opacity="1.00" d=" M 81.69 131.43 C 85.95 131.67 91.04 130.40 94.50 133.62 C 97.34 137.09 96.87 142.68 93.95 145.97 C 91.80 148.16 88.54 148.11 85.71 148.39 C 85.74 150.40 85.77 152.42 85.81 154.43 C 84.44 154.42 83.06 154.41 81.69 154.41 C 81.73 146.75 81.74 139.09 81.69 131.43 M 85.72 134.36 C 85.76 137.88 85.76 141.39 85.73 144.91 C 87.26 144.78 88.82 144.75 90.32 144.38 C 92.71 142.35 93.15 138.29 91.23 135.82 C 89.97 134.06 87.56 134.72 85.72 134.36 Z" />
<path fill="#df7229" opacity="1.00" d=" M 100.14 131.39 C 104.02 131.45 107.90 131.45 111.78 131.38 C 111.78 132.51 111.78 133.63 111.78 134.76 C 109.10 134.70 106.42 134.70 103.74 134.66 C 103.74 136.60 103.74 138.54 103.73 140.49 C 105.92 140.48 108.11 140.47 110.30 140.46 C 110.30 141.54 110.31 142.61 110.31 143.69 C 108.12 143.67 105.92 143.66 103.73 143.65 C 103.74 146.02 103.75 148.39 103.75 150.76 C 106.66 150.76 109.57 150.76 112.48 150.75 C 112.50 151.67 112.53 153.51 112.54 154.43 C 108.27 154.40 104.01 154.39 99.74 154.41 C 100.54 146.76 100.12 139.06 100.14 131.39 Z" />
<path fill="#df7229" opacity="1.00" d=" M 116.96 136.08 C 119.70 130.60 127.35 129.76 132.17 132.79 C 131.71 133.84 131.25 134.90 130.79 135.95 C 128.06 134.88 124.44 133.58 122.06 136.04 C 117.92 140.28 118.73 148.45 123.76 151.72 C 125.64 151.39 127.92 151.60 129.18 149.85 C 129.58 148.44 129.85 147.00 129.98 145.54 C 128.38 145.55 126.78 145.58 125.19 145.61 C 125.18 144.48 125.18 143.34 125.17 142.21 C 128.01 142.26 130.84 142.26 133.67 142.23 C 133.56 145.50 134.04 149.13 132.06 151.96 C 129.88 155.47 125.07 155.12 121.58 154.36 C 115.00 151.30 113.87 142.00 116.96 136.08 Z" />
<path fill="#df7229" opacity="1.00" d=" M 144.30 130.81 C 147.89 138.59 150.85 146.64 154.38 154.45 C 152.93 154.42 151.48 154.39 150.03 154.37 C 149.49 153.14 148.94 151.92 148.36 150.71 C 145.78 150.80 143.20 150.80 140.62 150.70 C 140.06 151.92 139.51 153.14 138.98 154.37 C 137.47 154.39 135.96 154.41 134.46 154.44 C 137.93 146.65 141.21 138.76 144.30 130.81 M 144.07 140.02 C 143.25 142.80 142.34 145.55 141.28 148.24 C 143.41 148.23 145.55 148.23 147.68 148.25 C 146.32 145.57 146.12 142.31 144.07 140.02 Z" />
</g>
</svg>
